<?xml version="1.0" encoding="UTF-8"?>
<!-- Created with Inkscape (http://www.inkscape.org/) -->
<svg width="50.535mm" height="50.535mm" version="1.1" viewBox="0 0 50.535 50.535" xmlns="http://www.w3.org/2000/svg" xmlns:cc="http://creativecommons.org/ns#" xmlns:dc="http://purl.org/dc/elements/1.1/" xmlns:rdf="http://www.w3.org/1999/02/22-rdf-syntax-ns#">
 <metadata>
  <rdf:RDF>
   <cc:Work rdf:about="">
    <dc:format>image/svg+xml</dc:format>
    <dc:type rdf:resource="http://purl.org/dc/dcmitype/StillImage"/>
    <dc:title/>
   </cc:Work>
  </rdf:RDF>
 </metadata>
 <g transform="translate(-63.868 -99.478)">
  <path d="m63.868 124.75v-25.268h50.535v50.535h-50.535zm25.797 8.7721c0.58208-0.43804 1.1603-0.88313 1.2849-0.98911 0.12459-0.10597-0.0715-0.94799-0.43578-1.8712-0.36427-0.92315-0.74355-2.0654-0.84286-2.5384l-0.18056-0.8599h4.54v5.0271h4.4979v-12.192l-2.1828 0.0769-2.1828 0.0768-0.0788 1.6536-0.0788 1.6536h-1.8395c-1.0117 0-1.8395-0.0731-1.8395-0.16241 0-0.56647 1.3217-2.3386 2.1066-2.8246 0.77575-0.48028 1.4248-0.59642 3.7888-0.67794 2.5713-0.0887 2.8382-0.144 2.7059-0.56093-0.0807-0.25441-0.29783-0.98525-0.48242-1.6241l-0.33562-1.1615-2.3703-0.0823c-5.5914-0.1941-8.742 2.0957-9.8119 7.131-0.6894 3.2446 0.0536 8.0591 1.6103 10.435 0.46782 0.71399 0.51688 0.70224 2.1271-0.50952zm-15.418-5.6183 0.0722-4.6514 1.2499 1.7029c1.8702 2.548 1.7225 2.5329 3.3809 0.34565l1.4546-1.9186 0.13229 4.5203 0.1323 4.5203h3.9687l0.07-8.0036 0.07-8.0036-4.1088 0.014-1.537 2.2422c-0.84537 1.2332-1.6329 2.2422-1.7501 2.2422s-0.91379-1.0107-1.7702-2.246l-1.5572-2.246-3.8365-6e-3v16.14h3.9565zm34.845 3.1301c0.16938-0.69122 0.37013-1.4651 0.44612-1.7198 0.12516-0.41946-0.11244-0.46302-2.5255-0.46302h-2.6637v-12.435h-3.9688v15.875h8.4038z" stroke-width=".26458"/>
 </g>
</svg>
