<svg width="818" height="818" viewBox="0 0 818 818" fill="none" xmlns="http://www.w3.org/2000/svg">
<g id="cfy_logo_outlines">
<path id="upper_left" d="M26.967 355.772L355.772 26.967C385.061 -2.32233 432.548 -2.32233 461.838 26.967L525.477 90.6066L90.6066 525.477L26.967 461.838C-2.32233 432.548 -2.32233 385.061 26.967 355.772Z" stroke="#333333" stroke-width="10"/>
<path id="lower_left" d="M133.033 567.904L249.706 451.231L525.477 727.003L461.838 790.642C432.548 819.932 385.061 819.932 355.772 790.642L133.033 567.904Z" stroke="#333333" stroke-width="10"/>
<path id="center" d="M292.132 408.805L408.805 292.132L525.477 408.805L408.805 525.477L292.132 408.805Z" stroke="#333333" stroke-width="10"/>
<path id="right" d="M606.795 405.269L451.231 249.706L567.904 133.033L790.642 355.772C819.932 385.061 819.932 432.548 790.642 461.838L567.904 684.576L451.231 567.904L606.795 412.34L610.33 408.805L606.795 405.269Z" stroke="#333333" stroke-width="10"/>
</g>
</svg>
