<svg width="818" height="818" viewBox="0 0 818 818" fill="none" xmlns="http://www.w3.org/2000/svg">
<g id="cfy_logo">
<path id="upper_left" d="M23.4315 465.373C-7.81049 434.131 -7.81048 383.478 23.4315 352.236L352.236 23.4315C383.478 -7.81048 434.131 -7.81049 465.373 23.4315L532.548 90.6066L90.6066 532.548L23.4315 465.373Z" fill="white"/>
<path id="lower_left" d="M125.962 567.904L249.706 444.16L532.548 727.003L465.373 794.178C434.131 825.42 383.478 825.42 352.236 794.178L125.962 567.904Z" fill="white"/>
<path id="center" d="M285.061 408.805L408.805 285.061L532.548 408.805L408.805 532.548L285.061 408.805Z" fill="white"/>
<path id="right" d="M567.904 125.962L444.16 249.706L603.259 408.805L444.16 567.904L567.904 691.647L794.178 465.373C825.42 434.131 825.42 383.478 794.178 352.236L567.904 125.962Z" fill="white"/>
</g>
</svg>
