<?xml version="1.0" encoding="UTF-8"?>
<!-- Created with Inkscape (http://www.inkscape.org/) -->
<svg width="145.46mm" height="168.27mm" version="1.1" viewBox="0 0 145.46 168.27" xmlns="http://www.w3.org/2000/svg" xmlns:cc="http://creativecommons.org/ns#" xmlns:dc="http://purl.org/dc/elements/1.1/" xmlns:rdf="http://www.w3.org/1999/02/22-rdf-syntax-ns#">
 <metadata>
  <rdf:RDF>
   <cc:Work rdf:about="">
    <dc:format>image/svg+xml</dc:format>
    <dc:type rdf:resource="http://purl.org/dc/dcmitype/StillImage"/>
    <dc:title/>
   </cc:Work>
  </rdf:RDF>
 </metadata>
 <g transform="translate(-40.689 -55.652)">
  <path d="m51.798 223.84c0-0.0466-0.04946-0.0847-0.10992-0.0847-0.11693 0-0.35998-0.93143-1.0273-3.937-0.20679-0.93133-0.53846-2.3834-0.73705-3.2269l-0.36107-1.5335-1.3165-0.30753c-0.72407-0.16914-1.734-0.36587-2.2442-0.43719-2.0738-0.28985-3.0868-0.70368-4.0801-1.6668-1.1302-1.0958-1.2852-1.6554-1.2152-4.3851 0.05297-2.0657 0.05317-11.304 2.8e-4 -12.954-0.0625-1.9493 7e-3 -2.3365 0.73701-4.1063 1.3682-3.3171 2.6999-7.0461 3.0991-8.6783 0.58865-2.407 0.96973-4.2711 1.0731-5.2493 0.25542-2.417 0.95624-6.023 1.736-8.9323 0.85469-3.1889 1.0869-4.6538 1.3554-8.5513 0.14963-2.1717 0.29157-3.0973 0.68542-4.4697 0.35915-1.2515 0.67779-1.941 1.5129-3.2736 0.36348-0.58008 0.92294-1.6198 1.2432-2.3104 1.2886-2.7786 1.6304-3.3801 2.838-4.9938 2.1396-2.859 3.6505-4.127 6.5476-5.4946 3.252-1.5352 4.1727-1.9379 5.6906-2.489 0.84691-0.30747 2.1323-0.8002 2.8564-1.095 1.584-0.64473 2.806-1.0407 4.2799-1.3869 0.60537-0.14216 1.6852-0.39542 2.3997-0.5628 1.4145-0.33138 2.4525-0.5045 3.5693-0.59531 0.39582-0.0322 1.1524-0.16892 1.6813-0.30385 0.5385-0.13738 1.1866-0.24533 1.4728-0.24533 0.40821 0 0.58309-0.0455 0.8684-0.22602l0.35725-0.22601 0.05086-1.1075c0.10129-2.2056 0.19187-2.8107 0.52598-3.5144 0.64134-1.3506 1.8503-2.6402 3.5524-3.7894 0.54637-0.36888 2.4534-1.3446 3.1115-1.5919 0.22119-0.0831 0.40216-0.19361 0.40215-0.24549-9e-6 -0.0519-0.07719-0.57058-0.17151-1.1527-0.28642-1.7676-0.62142-2.8588-1.4295-4.6567-0.40816-0.90805-0.8479-1.923-0.9772-2.2554l-0.2351-0.60439-0.73116-0.34126c-0.40214-0.18769-0.82641-0.36841-0.94283-0.40159-0.3906-0.11134-1.5615-0.73154-2.0743-1.0987-1.0907-0.78094-1.7774-1.6507-2.6016-3.2952-0.80688-1.6099-0.94658-2.011-1.2518-3.5949-0.19497-1.0118-0.34952-1.5588-0.59968-2.1224-0.57318-1.2913-0.70581-2.0521-0.70891-4.0662-0.0031-2.0479 0.03099-2.23 0.72486-3.8641 0.57354-1.3507 1.1036-2.1831 1.9153-3.0077l0.55528-0.56409-0.26203-2.0182c-0.41575-3.2023-0.47094-4.2813-0.36304-7.0982 0.05172-1.3504 0.09432-2.8744 0.09465-3.3867 7.62e-4 -1.2233 0.41531-3.1148 0.97118-4.4317 0.80538-1.908 2.3553-4.0961 4.5375-6.4056 3.1595-3.3439 6.7688-7.0199 7.106-7.2374 0.20955-0.13518 0.6096-0.34554 0.889-0.46746 0.90417-0.39456 1.6596-0.81798 2.3612-1.3235 1.2495-0.90026 2.4707-1.4228 3.3345-1.4267 0.15238-6.86e-4 0.57148-0.14837 0.93134-0.32818 0.87811-0.43876 1.0278-0.48024 2.644-0.73249 1.2197-0.19038 1.7784-0.22546 4.4027-0.27642 3.8785-0.07532 4.7099-0.07392 6.096 0.01024 1.0959 0.06654 1.2035 0.0904 2.6122 0.57947 0.80808 0.28054 1.8368 0.68175 2.286 0.89158s1.0561 0.47262 1.3486 0.58397c0.81535 0.31039 1.6328 0.74414 2.1031 1.1159 0.23417 0.1851 1.1594 0.70642 2.056 1.1585 1.3847 0.69815 1.7183 0.905 2.2148 1.3734 0.32149 0.30329 0.66826 0.69027 0.77059 0.85996s0.31084 0.44969 0.46336 0.62221c0.15252 0.17253 0.36019 0.47733 0.4615 0.67733 0.1013 0.20001 0.31436 0.50869 0.47347 0.68597 0.1591 0.17728 0.42072 0.52778 0.58135 0.7789 0.18424 0.28801 0.5969 0.70491 1.1177 1.1292 0.93901 0.76496 1.3524 1.1752 1.7402 1.727 0.14892 0.21191 0.37103 0.51308 0.49356 0.66927 0.19813 0.25256 0.75398 1.2509 1.9107 3.4319 0.75851 1.4301 0.86966 1.9319 1.4316 6.4618 0.29136 2.3486 0.31044 2.6518 0.31971 5.08 8e-3 2.2152-0.0172 2.7964-0.18065 4.0885-0.10477 0.82837-0.1905 1.7097-0.1905 1.9584v0.45227l0.71638 0.69923c0.53332 0.52056 0.80357 0.86684 1.0576 1.3552 0.62094 1.1935 0.63905 1.3315 0.6387 4.8661v3.1327l-0.24937 1.1007c-0.19473 0.85952-0.26283 1.416-0.31082 2.54-0.0992 2.3238-0.21595 3.5147-0.4025 4.1063-0.46377 1.4706-1.6709 2.7162-3.3977 3.5058l-0.46632 0.21322-0.32764 1.0827c-0.77974 2.5766-1.5608 4.3713-2.6449 6.0771-0.46958 0.73887-0.4855 0.78338-0.54526 1.524-0.0339 0.4196-0.0751 1.3835-0.0916 2.1419l-0.03 1.379 0.508 0.21925c1.8518 0.79924 2.452 1.2042 3.102 2.0929 0.18927 0.25881 0.35459 0.36731 0.77552 0.50897 0.83139 0.27978 1.4524 0.70422 2.2483 1.5366 0.82986 0.86789 1.5041 1.9838 1.8424 3.0491 0.22379 0.70473 0.62548 2.5979 0.62548 2.9479 0 0.14218 0.0463 0.2222 0.12845 0.2222 0.0707 0 0.59453 0.1564 1.1642 0.34755 1.2501 0.41949 2.5974 0.62986 4.5494 0.71036 1.6317 0.0673 2.4362 0.19017 3.915 0.59793 1.8188 0.5015 3.3658 1.2378 6.5836 3.1336 0.48895 0.28806 1.4414 0.74013 2.1167 1.0046 4.3265 1.6946 5.6366 2.3604 7.4083 3.765 0.74852 0.5934 2.6746 2.4639 3.4522 3.3526 0.32597 0.37254 1.0933 1.1917 1.7052 1.8203 1.5141 1.5556 1.7477 1.9991 2.0886 3.9658 0.26929 1.5533 0.40556 2.1025 1.1633 4.6885 0.2827 0.96472 0.70887 2.6792 0.94705 3.81s0.52301 2.4179 0.63295 2.8603c0.49796 2.0037 1.0714 5.2211 1.2224 6.858 0.0494 0.53552 0.13026 1.4118 0.1797 1.9473 0.0494 0.53551 0.22323 1.5833 0.38619 2.3283 0.31209 1.4269 0.45932 2.1505 1.094 5.3763 0.21532 1.0943 0.46209 2.2373 0.54837 2.54 0.0863 0.30268 0.27241 1.1409 0.41361 1.8627 0.51117 2.6131 1.4282 5.5793 2.3166 7.493 0.30265 0.65193 0.67436 1.5663 0.82604 2.032 0.40876 1.255 0.90064 2.529 1.2041 3.1188 0.51342 0.99794 0.63866 3.828 0.22167 5.0092-0.0494 0.13995-0.0954 0.9953-0.10235 1.905-0.0125 1.6274-0.0166 1.6625-0.28872 2.4553-0.43561 1.2693-1.4711 3.141-2.3158 4.1857l-0.56075 0.69359-0.0987 1.6878c-0.12689 2.1696-0.3042 3.7904-0.55974 5.1168-0.305 1.5832-1.1636 4.7407-1.2892 4.741-0.0582 0-0.10583 0.0384-0.10583 0.085 0 0.0564-21.519 0.0847-64.389 0.0847-42.87 0-64.389-0.0283-64.389-0.0847z" fill="#fff" stroke-width=".084667"/>
 </g>
</svg>
